Fly_normalized_Motion_pl12
version=1
nRows=12
nColumns=43
inDegrees=yes
endheader
time		pelvis_tilt		pelvis_list		pelvis_rotation		pelvis_tx		pelvis_ty		pelvis_tz		hip_flexion_r		hip_adduction_r		hip_rotation_r		knee_angle_r		ankle_angle_r		subtalar_angle_r		mtp_angle_r		hip_flexion_l		hip_adduction_l		hip_rotation_l		knee_angle_l		ankle_angle_l		subtalar_angle_l		mtp_angle_l		lumbar_extension		lumbar_bending		lumbar_rotation		neck_flexion		neck_lateral_bending		neck_rotation		arm_flex_r		arm_add_r		arm_rot_r		elbow_flex_r		pro_sup_r		wrist_flex_r		wrist_dev_r		hand_finger_flex_r		arm_flex_l		arm_add_l		arm_rot_l		elbow_flex_l		pro_sup_l		wrist_flex_l		wrist_dev_l		hand_finger_flex_l		
0.851667		1.012118		-5.616483		88.236740		0.011205		1.565306		0.952436		39.902762		-0.139404		-2.884245		-28.291758		-19.571884		0.843697		15.079074		37.495583		-8.100367		-13.998416		-26.454547		-20.524400		9.625411		25.118201		-39.400859		1.665419		-1.691256		3.863514		-4.618318		7.743114		-7.113920		-41.315940		11.003500		61.136109		108.572878		5.046192		5.410665		6.661191		-9.781680		-44.004633		4.701531		72.017645		101.479436		-3.390093		-5.489666		15.948495		
0.856010		0.988353		-5.251959		88.285972		0.010874		1.552525		0.943030		39.338173		-0.257159		-3.103988		-27.899473		-19.675320		1.136794		15.042490		36.897350		-8.040144		-14.205793		-26.072227		-20.794859		9.755912		25.064117		-39.251618		1.719251		-1.829497		3.002598		-4.676793		7.805607		-10.086102		-41.487884		9.661120		60.910848		108.950248		5.411258		5.029386		6.639381		-13.237478		-43.780958		3.015491		72.126435		102.404377		-2.642669		-6.018635		15.353994		
0.860354		1.014404		-4.962575		88.318160		0.010568		1.539451		0.933403		38.883313		-0.299098		-3.367018		-27.591649		-19.888506		1.199229		15.003262		36.356557		-8.032413		-14.323813		-25.690676		-21.113157		9.869127		25.043609		-38.906358		1.810954		-1.884651		1.537432		-4.723618		7.725580		-13.042258		-41.751027		8.740596		60.552542		108.691625		5.225757		4.758399		6.556662		-16.397237		-43.705611		2.134315		71.969740		102.331827		-2.704223		-6.365261		15.221512		
0.864697		1.022827		-4.645907		88.351701		0.010001		1.526176		0.923959		38.477613		-0.383101		-3.705381		-27.393018		-20.061592		1.311697		14.987137		35.836492		-7.985187		-14.379171		-25.303803		-21.436561		10.123948		25.018322		-38.608957		1.902411		-1.932856		0.309782		-4.804445		7.715072		-16.040694		-41.881772		7.467069		60.241403		108.528016		5.169134		4.458478		6.490929		-19.671625		-43.375400		0.875441		72.028026		102.458771		-2.621343		-6.858175		15.171317		
0.869040		1.034030		-4.365438		88.394042		0.009667		1.512685		0.914395		38.108826		-0.443610		-4.064784		-27.222073		-20.159752		1.432404		14.983490		35.302595		-7.961101		-14.430196		-24.885048		-21.732197		10.449973		24.985894		-38.279862		1.971685		-2.029923		-0.902750		-4.909325		7.743656		-19.063085		-41.810185		5.949320		59.931853		108.542497		5.221761		4.165524		6.412140		-23.002706		-42.878163		-0.684358		72.049675		102.799787		-2.430031		-7.368872		15.288425		
0.873384		1.027165		-4.043975		88.389754		0.009220		1.499029		0.904804		37.743788		-0.499693		-4.308934		-27.155861		-20.327178		1.594009		14.937437		34.779800		-7.952004		-14.513733		-24.628627		-22.023373		10.691891		24.957369		-37.940123		2.022525		-2.144225		-2.354052		-5.002444		7.773921		-22.017593		-41.856285		4.654422		59.712766		108.508245		5.166891		3.888122		6.331557		-26.267151		-42.498627		-1.867960		72.084409		102.915879		-2.361905		-7.763820		15.442029		
0.877727		1.015510		-3.754683		88.397271		0.008850		1.485156		0.895224		37.350321		-0.560670		-4.451105		-26.998911		-20.421506		1.888521		14.867191		34.307611		-7.944956		-14.611953		-24.432187		-22.287539		10.961904		24.922865		-37.564132		2.054206		-2.269738		-3.808957		-5.102969		7.836231		-25.002455		-41.779131		3.201855		59.532940		108.568536		5.128087		3.599689		6.241410		-29.538114		-42.016608		-3.170220		72.167643		103.021063		-2.300330		-8.145451		15.660292		
0.882071		0.977540		-3.578455		88.393890		0.008606		1.470888		0.885630		36.951036		-0.635712		-4.491513		-26.655145		-20.281916		2.475908		14.722603		33.930955		-7.932093		-14.755498		-24.202304		-22.458348		11.340498		24.858824		-37.081083		2.043040		-2.406174		-5.115326		-5.193163		7.935918		-28.053900		-41.395155		1.224220		59.382370		109.025386		5.237787		3.265359		6.103688		-32.857534		-41.273343		-4.819726		72.279154		103.236709		-2.194036		-8.499318		16.029540		
0.886414		0.904607		-3.343706		88.385254		0.008377		1.456441		0.876105		36.526144		-0.741516		-4.351438		-26.389847		-20.316545		3.148955		14.412020		33.568013		-7.888804		-14.813419		-24.139018		-22.610492		11.678039		24.743623		-36.625161		1.991503		-2.531731		-6.621293		-5.296910		8.011061		-31.133636		-41.050561		-0.722964		59.401242		109.911543		5.621264		2.847483		5.894624		-36.096223		-40.672030		-6.224868		72.499825		103.535298		-2.071885		-8.834999		16.452139		
0.890758		0.845615		-3.159443		88.354738		0.008197		1.441766		0.866518		36.099365		-0.806011		-4.150728		-26.038053		-20.417391		3.687873		14.278897		33.207589		-7.849221		-14.827520		-23.969733		-22.747927		11.965722		24.684552		-36.090054		1.938613		-2.677594		-8.209362		-5.388822		8.073804		-34.124581		-40.717127		-2.416492		59.400503		110.007392		5.441194		2.537874		5.750065		-39.348646		-40.011803		-7.496874		72.688442		103.297911		-2.298107		-9.191378		16.534766		
0.895101		0.734989		-3.013998		88.288637		0.008090		1.426819		0.856941		35.752319		-0.904856		-3.921017		-25.755975		-20.520354		4.304023		14.091276		32.852526		-7.766558		-14.819737		-23.749683		-22.804737		12.324093		24.598829		-35.520398		1.816816		-2.803044		-9.731438		-5.482777		8.120474		-37.157851		-40.226681		-4.370494		59.497073		110.416023		5.428055		2.239985		5.618032		-42.555298		-39.262225		-8.845873		72.924328		103.207178		-2.453204		-9.537238		16.684643		
0.899444		0.615104		-2.911985		88.209271		0.007971		1.411643		0.847352		35.472528		-1.003523		-3.768356		-25.503928		-20.642462		4.768580		13.990435		32.505412		-7.671121		-14.812551		-23.460323		-22.827111		12.700701		24.546470		-34.928870		1.676419		-2.897286		-11.107972		-5.552954		8.170231		-40.161760		-39.582606		-6.421600		59.581400		110.501856		5.094761		2.003242		5.488174		-45.708953		-38.355007		-10.253074		73.193711		103.053774		-2.756859		-9.918997		16.678790		
